<svg width="48" height="49" viewBox="0 0 48 49" fill="none" xmlns="http://www.w3.org/2000/svg">
<path d="M32.2489 4.25V6.359C31.0185 6.56812 29.8502 7.04876 28.8289 7.766L27.2809 6.311L25.2184 8.516L26.7184 9.9215C26.0339 10.9225 25.5701 12.0576 25.3579 13.2515H23.2489V16.2515H25.3579C25.5769 17.4965 26.0689 18.6305 26.7649 19.6265L25.1704 21.1715L27.3304 23.3315L28.8754 21.7355C29.8714 22.4315 31.0054 22.9235 32.2504 23.1425V25.25H35.2504V23.141C36.4442 22.9292 37.5793 22.466 38.5804 21.782L39.9844 23.282L42.1894 21.218L40.7344 19.673C41.4394 18.668 41.9194 17.5055 42.1414 16.25H44.2489V13.25H42.1399C41.9244 12.0353 41.444 10.883 40.7329 9.875L42.1399 8.468L40.0294 6.359L38.6239 7.766C37.6158 7.05486 36.4635 6.57448 35.2489 6.359V4.25H32.2489ZM33.7489 9.2195C34.4766 9.21472 35.1979 9.3545 35.8712 9.63072C36.5444 9.90694 37.1561 10.3141 37.6707 10.8286C38.1853 11.3431 38.5927 11.9547 38.8691 12.6278C39.1455 13.301 39.2855 14.0223 39.2809 14.75C39.2809 17.8325 36.8314 20.282 33.7489 20.282C30.6664 20.282 28.2169 17.8325 28.2169 14.75C28.2169 11.6675 30.6664 9.218 33.7489 9.218V9.2195ZM14.2939 18.077L11.5309 19.202L12.6079 21.917C11.1743 22.7751 9.96836 23.9656 9.09187 25.388L6.42188 24.308L5.29688 27.0755L7.96687 28.1525C7.75621 28.9639 7.64638 29.7982 7.63987 30.6365C7.63987 31.4915 7.76737 32.3255 7.96687 33.1205L5.29688 34.2005L6.42188 36.965L9.09187 35.885C9.96056 37.3258 11.1674 38.5332 12.6079 39.4025L11.5279 42.0725L14.2954 43.1975L15.3754 40.5275C16.1868 40.7382 17.0211 40.848 17.8594 40.8545C18.7144 40.8545 19.5514 40.727 20.3434 40.5275L21.4234 43.1975L24.1879 42.0725L23.1079 39.4025C24.5317 38.5279 25.7227 37.3215 26.5789 35.8865L29.2939 36.9635L30.4189 34.199L27.7039 33.119C27.8989 32.324 28.0309 31.4885 28.0309 30.635C28.0309 29.78 27.9004 28.943 27.7009 28.1495L30.4204 27.0725L29.2954 24.305L26.5804 25.385C25.7185 23.9664 24.528 22.7759 23.1094 21.914L24.1894 19.199L21.4219 18.074L20.3464 20.789C19.5338 20.5816 18.6994 20.4724 17.8609 20.4635C17.0059 20.4635 16.1719 20.5925 15.3769 20.7905L14.2969 18.0755L14.2939 18.077ZM17.8579 23.465C21.8524 23.465 25.0279 26.645 25.0279 30.638C25.0309 34.6325 21.8524 37.856 17.8579 37.856C16.9097 37.8572 15.9705 37.6713 15.0943 37.309C14.218 36.9467 13.4218 36.415 12.7513 35.7445C12.0808 35.0741 11.5492 34.2779 11.1869 33.4016C10.8246 32.5253 10.6387 31.5862 10.6399 30.638C10.6399 26.6435 13.8649 23.465 17.8579 23.465Z" fill="white"/>
</svg>
