<svg width="48" height="49" viewBox="0 0 48 49" fill="none" xmlns="http://www.w3.org/2000/svg">
<path d="M27.4285 36.5H20.5716V29.6428H27.4286L27.4285 36.5ZM34.2857 30.6493L30.355 26.7164C30.196 26.557 30.0071 26.4306 29.799 26.3444C29.591 26.2582 29.368 26.214 29.1428 26.2143H18.8572C17.9103 26.2143 17.1428 26.9817 17.1428 27.9285V38.2143C17.1428 38.6606 17.3134 39.0669 17.5927 39.3718L21.5789 43.3572H15.4284C14.4817 43.3572 13.7142 42.5897 13.7142 41.6428V24.5C13.7142 23.5531 14.4817 22.7857 15.4284 22.7857H32.5716C33.5183 22.7857 34.2858 23.5532 34.2858 24.5L34.2857 30.6493ZM44.5716 36.5L41.1429 33.0715L41.1473 26.2098L44.5716 22.7856V36.5ZM25.7104 9.53281C23.4299 10.8477 23.4299 14.1523 25.7104 15.4672C27.9909 16.7819 30.8572 15.1295 30.8572 12.5C30.8572 9.8705 27.9909 8.21806 25.7104 9.53281ZM44.5716 19.3572L37.7144 26.2143V22.7857C37.7144 21.1451 36.5617 19.7744 35.0224 19.4373C36.6943 17.6082 37.7144 15.1734 37.7144 12.5001C37.7144 6.8194 33.1094 2.21431 27.4286 2.21431C22.0114 2.21431 17.5723 6.4024 17.1724 11.7175C15.3491 10.0729 12.9345 9.07147 10.2858 9.07147C4.60509 9.07147 0 13.6765 0 19.3572C0 25.0378 4.60509 29.6428 10.2857 29.6428H6.85716V36.5H10.2857V43.3572C10.2857 45.2507 11.8207 46.7857 13.7143 46.7857H34.2857C36.1793 46.7857 37.7143 45.2507 37.7143 43.3572V39.9284L44.5715 46.7856H48V19.3572H44.5716ZM13.7143 19.3572C13.7143 16.7277 10.8892 15.1491 8.56753 16.39C6.00609 17.7592 6.17381 22.5212 10.2858 22.7857V26.2141C2.72016 25.9728 1.18753 16.625 6.84937 13.423C11.4321 10.8312 17.1428 14.0982 17.1428 19.3572L13.7143 19.3572ZM23.9924 18.4343C19.4313 15.8048 19.4313 9.19522 23.9924 6.56572C28.5535 3.93622 34.2858 7.2409 34.2858 12.5C34.2858 17.7591 28.5534 21.0639 23.9923 18.4344" fill="white"/>
</svg>
