<svg width="48" height="49" viewBox="0 0 48 49" fill="none" xmlns="http://www.w3.org/2000/svg">
<path d="M14 14.5C14 11.8478 15.0536 9.3043 16.9289 7.42893C18.8043 5.55357 21.3478 4.5 24 4.5C26.6522 4.5 29.1957 5.55357 31.0711 7.42893C32.9464 9.3043 34 11.8478 34 14.5C34 17.1522 32.9464 19.6957 31.0711 21.5711C29.1957 23.4464 26.6522 24.5 24 24.5C21.3478 24.5 18.8043 23.4464 16.9289 21.5711C15.0536 19.6957 14 17.1522 14 14.5ZM7 38.5C7 35.8478 8.05357 33.3043 9.92893 31.4289C11.8043 29.5536 14.3478 28.5 17 28.5H31C32.3132 28.5 33.6136 28.7587 34.8268 29.2612C36.0401 29.7638 37.1425 30.5003 38.0711 31.4289C38.9997 32.3575 39.7362 33.4599 40.2388 34.6732C40.7413 35.8864 41 37.1868 41 38.5V42.5H7V38.5Z" fill="white"/>
</svg>
