<svg width="24" height="24" viewBox="0 0 24 24" fill="none" xmlns="http://www.w3.org/2000/svg">
<path d="M16.1244 1.875V2.9295C15.5093 3.03406 14.9251 3.27438 14.4144 3.633L13.6404 2.9055L12.6092 4.008L13.3592 4.71075C13.0169 5.21123 12.7851 5.77879 12.6789 6.37575H11.6244V7.87575H12.6789C12.7884 8.49825 13.0344 9.06525 13.3824 9.56325L12.5852 10.3358L13.6652 11.4158L14.4377 10.6178C14.9357 10.9658 15.5027 11.2118 16.1252 11.3213V12.375H17.6252V11.3205C18.2221 11.2146 18.7896 10.983 19.2902 10.641L19.9922 11.391L21.0947 10.359L20.3672 9.5865C20.7197 9.084 20.9597 8.50275 21.0707 7.875H22.1244V6.375H21.0699C20.9622 5.76767 20.722 5.19152 20.3664 4.6875L21.0699 3.984L20.0147 2.9295L19.3119 3.633C18.8079 3.27743 18.2318 3.03724 17.6244 2.9295V1.875H16.1244ZM16.8744 4.35975C17.2383 4.35736 17.599 4.42725 17.9356 4.56536C18.2722 4.70347 18.578 4.90705 18.8354 5.1643C19.0927 5.42154 19.2963 5.72733 19.4345 6.06391C19.5727 6.40049 19.6427 6.76116 19.6404 7.125C19.6404 8.66625 18.4157 9.891 16.8744 9.891C15.3332 9.891 14.1084 8.66625 14.1084 7.125C14.1084 5.58375 15.3332 4.359 16.8744 4.359V4.35975ZM7.14694 8.7885L5.76544 9.351L6.30394 10.7085C5.58716 11.1375 4.98418 11.7328 4.54594 12.444L3.21094 11.904L2.64844 13.2878L3.98344 13.8263C3.87811 14.232 3.82319 14.6491 3.81994 15.0683C3.81994 15.4958 3.88369 15.9128 3.98344 16.3103L2.64844 16.8503L3.21094 18.2325L4.54594 17.6925C4.98028 18.4129 5.5837 19.0166 6.30394 19.4513L5.76394 20.7863L7.14769 21.3488L7.68769 20.0138C8.0934 20.1191 8.51054 20.174 8.92969 20.1773C9.35719 20.1773 9.77569 20.1135 10.1717 20.0138L10.7117 21.3488L12.0939 20.7863L11.5539 19.4513C12.2659 19.0139 12.8613 18.4108 13.2894 17.6933L14.6469 18.2318L15.2094 16.8495L13.8519 16.3095C13.9494 15.912 14.0154 15.4943 14.0154 15.0675C14.0154 14.64 13.9502 14.2215 13.8504 13.8248L15.2102 13.2863L14.6477 11.9025L13.2902 12.4425C12.8592 11.7332 12.264 11.138 11.5547 10.707L12.0947 9.3495L10.7109 8.787L10.1732 10.1445C9.76692 10.0408 9.3497 9.98618 8.93044 9.98175C8.50294 9.98175 8.08594 10.0463 7.68844 10.1453L7.14844 8.78775L7.14694 8.7885ZM8.92894 11.4825C10.9262 11.4825 12.5139 13.0725 12.5139 15.069C12.5154 17.0663 10.9262 18.678 8.92894 18.678C8.45483 18.6786 7.98526 18.5856 7.54713 18.4045C7.109 18.2233 6.71091 17.9575 6.37567 17.6223C6.04042 17.287 5.77461 16.8889 5.59345 16.4508C5.41229 16.0127 5.31934 15.5431 5.31994 15.069C5.31994 13.0717 6.93244 11.4825 8.92894 11.4825Z" fill="#6C6C6C"/>
</svg>
