<svg width="24" height="24" viewBox="0 0 24 24" fill="none" xmlns="http://www.w3.org/2000/svg">
<g clip-path="url(#clip0_726_1432)">
<path d="M13.7143 18H10.2858V14.5714H13.7143L13.7143 18ZM17.1428 15.0747L15.1775 13.1082C15.098 13.0285 15.0035 12.9653 14.8995 12.9222C14.7955 12.8791 14.684 12.857 14.5714 12.8571H9.42858C8.95514 12.8571 8.57142 13.2409 8.57142 13.7143V18.8571C8.57142 19.0803 8.65669 19.2834 8.79633 19.4359L10.7895 21.4286H7.71422C7.24083 21.4286 6.85711 21.0448 6.85711 20.5714V12C6.85711 11.5266 7.24083 11.1428 7.71422 11.1428H16.2858C16.7592 11.1428 17.1429 11.5266 17.1429 12L17.1428 15.0747ZM22.2858 18L20.5715 16.2857L20.5737 12.8549L22.2858 11.1428V18ZM12.8552 4.5164C11.715 5.17382 11.715 6.82616 12.8552 7.48358C13.9955 8.14096 15.4286 7.31474 15.4286 5.99999C15.4286 4.68524 13.9955 3.85902 12.8552 4.5164ZM22.2858 9.42857L18.8572 12.8571V11.1428C18.8572 10.3225 18.2809 9.63721 17.5112 9.46865C18.3472 8.55412 18.8572 7.33668 18.8572 6.00004C18.8572 3.15969 16.5547 0.857147 13.7143 0.857147C11.0057 0.857147 8.78616 2.95119 8.58619 5.60873C7.67456 4.78644 6.46725 4.28573 5.14289 4.28573C2.30255 4.28573 0 6.58823 0 9.42862C0 12.2689 2.30255 14.5714 5.14284 14.5714H3.42858V18H5.14284V21.4286C5.14284 22.3754 5.91033 23.1428 6.85716 23.1428H17.1428C18.0897 23.1428 18.8572 22.3754 18.8572 21.4286V19.7142L22.2857 23.1428H24V9.42857H22.2858ZM6.85716 9.42857C6.85716 8.11382 5.44458 7.32454 4.28377 7.94498C3.00305 8.62958 3.08691 11.0106 5.14289 11.1428V12.8571C1.36008 12.7364 0.593765 8.06249 3.42469 6.46148C5.71603 5.16557 8.57142 6.79907 8.57142 9.42862L6.85716 9.42857ZM11.9962 8.96713C9.71564 7.65238 9.71564 4.3476 11.9962 3.03285C14.2768 1.7181 17.1429 3.37044 17.1429 5.99999C17.1429 8.62954 14.2767 10.2819 11.9962 8.96718" fill="#6C6C6C"/>
</g>
<defs>
<clipPath id="clip0_726_1432">
<rect width="24" height="24" fill="white"/>
</clipPath>
</defs>
</svg>
